<?xml version="1.0" encoding="utf-8"?>
<!-- Generator: Adobe Illustrator 16.0.0, SVG Export Plug-In . SVG Version: 6.00 Build 0)  -->
<!DOCTYPE svg PUBLIC "-//W3C//DTD SVG 1.1//EN" "http://www.w3.org/Graphics/SVG/1.1/DTD/svg11.dtd">
<svg version="1.1" id="Layer_1" xmlns="http://www.w3.org/2000/svg" xmlns:xlink="http://www.w3.org/1999/xlink" x="0px" y="0px"
	 width="353.125px" height="40.75px" viewBox="0 0 353.125 40.75" enable-background="new 0 0 353.125 40.75" xml:space="preserve">
<g>
	<g>
		<g>
			<path fill="#959A9D" d="M191.648,0.603c-44.672,0.38-89.448-0.566-132.841-0.586c-19.336,0-38.563,0-57.307,0.001H0.142
				l0.001,1.357c0.009,12.943,0.02,25.593,0.027,38l0.001,1.331L1.5,40.705c107.399-0.096,210.007-0.334,308.074-0.004
				c9.157,0.031,24.225,0.099,33.614,0.058c19.507-0.087-0.212-1.602-9.545-1.815c-58.6-1.351-122.646-1.1-174.454-0.659
				C106.458,38.732,53.857,38.79,1.5,38.702l0.673,0.673c0.028-12.686,0.057-25.357,0.085-38L1.5,2.134
				c118.271,0.324,235.275,1.077,350-0.615l-0.145-0.144c0.085,5.424,0.17,10.817,0.255,16.205
				c0.108,6.396,0.543,33.452,1.054,16.041c0.247-8.436,0.296-20.779,0.271-32.246l-0.003-1.445L351.5-0.062
				c-12.797,0.075-24.51,0.144-28.576,0.168C280.732,0.388,236.527,0.222,191.648,0.603z M207.641,0.99
				c-0.831-0.19,5.363-0.589,6.416-0.349C214.887,0.83,208.693,1.23,207.641,0.99z"/>
		</g>
	</g>
</g>
</svg>
