<svg id="Layer_1" enable-background="new 0 0 512 512" height="512" viewBox="0 0 512 512" width="512" xmlns="http://www.w3.org/2000/svg"><path id="XMLID_1021_" d="m441.948 387.369h-371.896c.093-6.47 1.525-12.784 4.172-18.873 18.069-41.619 92.582-72.813 181.775-72.813s163.706 31.194 181.775 72.813c2.649 6.089 4.081 12.403 4.174 18.873z" fill="#ffe5c4"/><g fill="#fdd1a7"><path id="XMLID_1022_" d="m391.088 324.567c-33.893 17.781-81.879 28.886-135.088 28.886s-101.195-11.105-135.088-28.886c33.893-17.781 81.879-28.886 135.088-28.886s101.195 11.105 135.088 28.886z"/><path id="XMLID_1023_" d="m441.948 387.369h-371.896c.093-6.47 1.525-12.784 4.172-18.873 3.286.319 6.954.494 11.116.494 18.337 0 26.939-3.451 36.891-7.458 11.301-4.553 24.106-9.704 48.429-9.704 24.333 0 37.138 5.151 48.439 9.704 9.962 4.008 18.564 7.458 36.901 7.458s26.939-3.451 36.901-7.458c11.301-4.553 24.106-9.704 48.439-9.704 24.323 0 37.128 5.151 48.429 9.704 9.952 4.008 18.554 7.458 36.891 7.458 4.162 0 7.829-.175 11.116-.494 2.647 6.089 4.079 12.403 4.172 18.873z"/><path id="XMLID_1024_" d="m441.948 387.369h-43.268c-.577-41.619-50.293-77.078-120.078-91.006 91.604 5.511 162.645 44.102 163.346 91.006z"/></g><path id="XMLID_1026_" d="m512 377.99v39.5c-42.67 0-42.67 17.17-85.34 17.17-42.66 0-42.66-17.17-85.32-17.17-42.67 0-42.67 17.17-85.34 17.17s-42.67-17.17-85.34-17.17c-42.66 0-42.66 17.17-85.32 17.17-42.67 0-42.67-17.17-85.34-17.17v-39.5c0-6.06 5.2-10.78 11.23-10.26 31.83 2.7 35.55 16.72 74.11 16.72 42.66 0 42.66-17.17 85.32-17.17 42.67 0 42.67 17.17 85.34 17.17s42.67-17.17 85.34-17.17c42.66 0 42.66 17.17 85.32 17.17 38.56 0 42.28-14.02 74.11-16.72 6.03-.52 11.23 4.2 11.23 10.26z" fill="#a8e7ef"/><path id="XMLID_1027_" d="m512 450.725v-42.044c-42.668 0-42.668 17.17-85.336 17.17s-42.668-17.17-85.328-17.17c-42.668 0-42.668 17.17-85.336 17.17s-42.668-17.17-85.336-17.17c-42.66 0-42.66 17.17-85.328 17.17s-42.668-17.17-85.336-17.17v42.044c0 5.69 4.612 10.302 10.302 10.302h491.396c5.69 0 10.302-4.612 10.302-10.302z" fill="#70d9e6"/><path id="XMLID_1028_" d="m339.561 332.619h-4.125c-4.267 0-7.726-3.459-7.726-7.726s3.459-7.726 7.726-7.726h4.125c4.267 0 7.726 3.459 7.726 7.726s-3.459 7.726-7.726 7.726z" fill="#ffe5c4"/><path id="XMLID_1029_" d="m242.948 187.936h26.105v147.656h-26.105z" fill="#79cdd4"/><path id="XMLID_1030_" d="m269.052 295.92v39.672h-26.105v-39.672c4.316-.165 8.664-.237 13.052-.237s8.737.072 13.053.237z" fill="#35bcc7"/><path id="XMLID_1031_" d="m242.948 187.934h26.105v25.858h-26.105z" fill="#35bcc7"/><path id="XMLID_1033_" d="m204.093 198.289h103.809c13.372 0 24.212-10.84 24.212-24.212l6-13.904-81.114-9-83.119 9 6 13.904c0 13.372 10.84 24.212 24.212 24.212z" fill="#bcea73"/><path id="XMLID_1034_" d="m356.327 198.289h28.951c13.372 0 24.212-10.84 24.212-24.212v-13.904l-38.688-9-38.688 9v13.904c0 13.372 10.841 24.212 24.213 24.212z" fill="#fc7d4b"/><path id="XMLID_1035_" d="m126.718 198.289h28.951c13.372 0 24.212-10.84 24.212-24.212v-13.904l-38.688-9-38.688 9v13.904c0 13.372 10.841 24.212 24.213 24.212z" fill="#fc7d4b"/><path id="XMLID_1036_" d="m409.49 160.172c-22.038-63.561-82.431-109.199-153.492-109.199s-131.455 45.638-153.493 109.199z" fill="#a3e440"/><path id="XMLID_1037_" d="m409.495 160.172h-23.941c-15.669-48.48-50.757-87.236-95.281-105.573 55.721 11.971 100.823 52.529 119.222 105.573z" fill="#99d53b"/><path id="XMLID_1038_" d="m332.114 160.172c-10.929-63.561-40.878-109.199-76.117-109.199s-65.188 45.638-76.117 109.199z" fill="#fb6a3b"/><path id="XMLID_1039_" d="m332.118 160.172h-23.941c-9.663-56.227-34.212-98.423-64.149-107.407 3.904-1.185 7.901-1.793 11.971-1.793 35.241.001 65.189 45.638 76.119 109.2z" fill="#fb5532"/><path id="XMLID_1040_" d="m409.495 160.172v13.907c0 13.372-10.848 24.209-24.22 24.209h-23.931c13.372 0 24.209-10.838 24.209-24.209v-13.907z" fill="#fb6a3b"/><path id="XMLID_1041_" d="m332.118 160.172v13.907c0 13.372-10.848 24.209-24.22 24.209h-23.931c13.372 0 24.209-10.838 24.209-24.209v-13.907z" fill="#a3e440"/><path id="XMLID_1043_" d="m309.312 345.209v-12.177c-16.885-2.503-34.779-3.853-53.312-3.853s-36.427 1.35-53.312 3.853v12.177z" fill="#fdd1a7"/><path id="XMLID_1044_" d="m256 321.453c-14.789 0-29.451.855-43.735 2.53-4.503.528-7.552 4.861-6.548 9.282.012.052.024.104.035.156.866 3.813 4.454 6.363 8.338 5.907 13.678-1.604 27.728-2.423 41.909-2.423 13.148 0 26.187.696 38.92 2.073 3.955.428 7.585-2.249 8.32-6.159.01-.051.019-.101.029-.152.823-4.383-2.232-8.563-6.666-9.043-13.291-1.44-26.892-2.171-40.602-2.171z" fill="#f5a871"/><path id="XMLID_1045_" d="m244.092 362.109h-4.125c-4.267 0-7.726-3.459-7.726-7.726s3.459-7.726 7.726-7.726h4.125c4.267 0 7.726 3.459 7.726 7.726s-3.459 7.726-7.726 7.726z" fill="#f5a871"/><path id="XMLID_1046_" d="m273.668 365.199h-4.125c-4.267 0-7.726-3.459-7.726-7.726s3.459-7.726 7.726-7.726h4.125c4.267 0 7.726 3.459 7.726 7.726s-3.459 7.726-7.726 7.726z" fill="#f5a871"/></svg>